<?xml version="1.0" encoding="UTF-8" standalone="no"?>
<!DOCTYPE svg PUBLIC "-//W3C//DTD SVG 1.1//EN" "http://www.w3.org/Graphics/SVG/1.1/DTD/svg11.dtd">
<svg width="100%" height="100%" viewBox="0 0 16 15" version="1.1" xmlns="http://www.w3.org/2000/svg" xmlns:xlink="http://www.w3.org/1999/xlink" xml:space="preserve" xmlns:serif="http://www.serif.com/" style="fill-rule:evenodd;clip-rule:evenodd;stroke-linejoin:round;stroke-miterlimit:2;">
    <g transform="matrix(1,0,0,1,-66.2746,-0.0201803)">
        <path d="M74.943,14.654C74.73,14.925 74.295,14.774 74.295,14.43L74.295,11.127C74.295,10.726 73.97,10.402 73.57,10.402L69.923,10.402C69.628,10.402 69.456,10.068 69.628,9.829L72.026,6.472C72.369,5.992 72.026,5.325 71.435,5.325L67.022,5.325C66.727,5.325 66.555,4.991 66.727,4.751L69.835,0.399C69.903,0.304 70.013,0.247 70.13,0.247L79.393,0.247C79.688,0.247 79.86,0.581 79.688,0.82L77.29,4.177C76.947,4.657 77.29,5.325 77.881,5.325L81.528,5.325C81.83,5.325 82,5.673 81.813,5.912L74.943,14.655L74.943,14.654Z" style="fill:rgb(134,59,255);fill-rule:nonzero;"/>
    </g>
</svg>
